<svg width="30" height="40" viewBox="0 0 30 40" fill="none" xmlns="http://www.w3.org/2000/svg">
<path d="M15.41 7.75536C15.375 7.67933 15.319 7.61491 15.2486 7.56976C15.1781 7.52461 15.0962 7.50061 15.0125 7.50061C14.9288 7.50061 14.8469 7.52461 14.7764 7.56976C14.706 7.61491 14.65 7.67933 14.615 7.75536L12.825 11.6379C12.7936 11.7055 12.7454 11.7639 12.685 11.8077C12.6246 11.8514 12.554 11.879 12.48 11.8879L8.2325 12.3929C8.14968 12.4029 8.07145 12.4364 8.00704 12.4894C7.94263 12.5425 7.89473 12.6128 7.86898 12.6921C7.84323 12.7715 7.8407 12.8566 7.8617 12.9373C7.8827 13.0181 7.92635 13.0911 7.9875 13.1479L11.1275 16.0504C11.1827 16.1012 11.2238 16.1654 11.2471 16.2368C11.2703 16.3081 11.2747 16.3843 11.26 16.4579L10.425 20.6504C10.4086 20.7324 10.4161 20.8173 10.4465 20.8952C10.4769 20.973 10.529 21.0406 10.5966 21.0897C10.6642 21.1389 10.7445 21.1677 10.828 21.1727C10.9114 21.1777 10.9945 21.1587 11.0675 21.1179L14.8 19.0304C14.865 18.9943 14.9381 18.9753 15.0125 18.9753C15.0869 18.9753 15.16 18.9943 15.225 19.0304L18.9575 21.1179C19.2825 21.3004 19.6725 21.0179 19.6 20.6504L18.7675 16.4579C18.7528 16.3843 18.7572 16.3081 18.7804 16.2368C18.8036 16.1654 18.8448 16.1012 18.9 16.0504L22.0375 13.1479C22.0986 13.0911 22.1423 13.0181 22.1633 12.9373C22.1843 12.8566 22.1818 12.7715 22.156 12.6921C22.1303 12.6128 22.0824 12.5425 22.018 12.4894C21.9535 12.4364 21.8753 12.4029 21.7925 12.3929L17.5475 11.8879C17.473 11.8795 17.4019 11.852 17.3411 11.8083C17.2802 11.7645 17.2316 11.7058 17.2 11.6379L15.41 7.75536ZM30 15.0004C30.0023 17.1111 29.558 19.1985 28.6963 21.1254C27.8345 23.0522 26.5748 24.775 25 26.1804V38.7504C24.9999 38.9693 24.9424 39.1843 24.8331 39.374C24.7238 39.5637 24.5666 39.7213 24.3773 39.8312C24.188 39.941 23.9731 39.9993 23.7542 40C23.5353 40.0007 23.3201 39.944 23.13 39.8354L15 35.1904L6.87 39.8354C6.67993 39.944 6.46467 40.0007 6.24578 40C6.02688 39.9993 5.81202 39.941 5.62268 39.8312C5.43334 39.7213 5.27618 39.5637 5.1669 39.374C5.05762 39.1843 5.00007 38.9693 5 38.7504V26.1804C3.13504 24.5123 1.71697 22.4042 0.87493 20.048C0.0328866 17.6919 -0.206383 15.1625 0.17891 12.6902C0.564203 10.2179 1.56182 7.88133 3.08091 5.89313C4.6 3.90494 6.59232 2.32833 8.87643 1.30687C11.1605 0.285414 13.6639 -0.148441 16.1585 0.0448105C18.6532 0.238063 21.0598 1.05228 23.1594 2.41333C25.2589 3.77438 26.9847 5.63901 28.1794 7.83744C29.3742 10.0359 30 12.4983 30 15.0004ZM15 30.0004C12.3667 30.0042 9.77926 29.3116 7.5 27.9929V36.5979L14.38 32.6654C14.5688 32.5575 14.7825 32.5008 15 32.5008C15.2175 32.5008 15.4312 32.5575 15.62 32.6654L22.5 36.6004V27.9954C20.2205 29.3134 17.6331 30.0051 15 30.0004ZM15 27.5004C18.3152 27.5004 21.4946 26.1834 23.8388 23.8392C26.183 21.495 27.5 18.3156 27.5 15.0004C27.5 11.6852 26.183 8.50573 23.8388 6.16152C21.4946 3.81731 18.3152 2.50035 15 2.50035C11.6848 2.50035 8.50537 3.81731 6.16117 6.16152C3.81696 8.50573 2.5 11.6852 2.5 15.0004C2.5 18.3156 3.81696 21.495 6.16117 23.8392C8.50537 26.1834 11.6848 27.5004 15 27.5004Z" fill="url(#paint0_linear_919_1032)"/>
<defs>
<linearGradient id="paint0_linear_919_1032" x1="15" y1="0" x2="15" y2="40" gradientUnits="userSpaceOnUse">
<stop stop-color="#2CD58B"/>
<stop offset="1" stop-color="#3AC9FB"/>
</linearGradient>
</defs>
</svg>
