<svg width="36" height="36" viewBox="0 0 36 36" fill="none" xmlns="http://www.w3.org/2000/svg">
<path d="M29.5737 14.1429C29.5737 11.0739 28.3545 8.13068 26.1845 5.96062C24.0144 3.79056 21.0712 2.57143 18.0022 2.57143C14.9333 2.57143 11.9901 3.79056 9.82 5.96062C7.64993 8.13068 6.4308 11.0739 6.4308 14.1429C6.4308 18.8897 10.2288 25.0766 18.0022 32.4874C25.7757 25.0766 29.5737 18.8897 29.5737 14.1429ZM18.0022 36C8.5728 27.4294 3.85938 20.142 3.85938 14.1429C3.85938 10.3919 5.34942 6.79465 8.00172 4.14235C10.654 1.49005 14.2513 0 18.0022 0C21.7532 0 25.3504 1.49005 28.0027 4.14235C30.655 6.79465 32.1451 10.3919 32.1451 14.1429C32.1451 20.142 27.4317 27.4294 18.0022 36Z" fill="url(#paint0_linear_919_1029)"/>
<path d="M18 15.4285C18.682 15.4285 19.336 15.1576 19.8183 14.6754C20.3005 14.1931 20.5714 13.5391 20.5714 12.8571C20.5714 12.1751 20.3005 11.5211 19.8183 11.0388C19.336 10.5566 18.682 10.2857 18 10.2857C17.318 10.2857 16.664 10.5566 16.1817 11.0388C15.6995 11.5211 15.4286 12.1751 15.4286 12.8571C15.4286 13.5391 15.6995 14.1931 16.1817 14.6754C16.664 15.1576 17.318 15.4285 18 15.4285ZM18 17.9999C16.636 17.9999 15.3279 17.4581 14.3635 16.4936C13.399 15.5292 12.8571 14.2211 12.8571 12.8571C12.8571 11.4931 13.399 10.185 14.3635 9.22054C15.3279 8.25607 16.636 7.71423 18 7.71423C19.364 7.71423 20.6721 8.25607 21.6365 9.22054C22.601 10.185 23.1429 11.4931 23.1429 12.8571C23.1429 14.2211 22.601 15.5292 21.6365 16.4936C20.6721 17.4581 19.364 17.9999 18 17.9999ZM31.8857 25.7142L36 35.9999H24.4286V33.4285H11.5714V35.9999H0L4.11429 25.7142H31.8857ZM29.1163 25.7142H6.88371L3.798 33.4285H32.202L29.1163 25.7142Z" fill="url(#paint1_linear_919_1029)"/>
<defs>
<linearGradient id="paint0_linear_919_1029" x1="18.0022" y1="0" x2="18.0022" y2="36" gradientUnits="userSpaceOnUse">
<stop stop-color="#2CD58B"/>
<stop offset="1" stop-color="#3AC9FB"/>
</linearGradient>
<linearGradient id="paint1_linear_919_1029" x1="18" y1="7.71423" x2="18" y2="35.9999" gradientUnits="userSpaceOnUse">
<stop stop-color="#2CD58B"/>
<stop offset="1" stop-color="#3AC9FB"/>
</linearGradient>
</defs>
</svg>
